<svg width="12" height="12" viewBox="0 0 12 12" fill="none" xmlns="http://www.w3.org/2000/svg">
<g clip-path="url(#clip0_859_2)">
<path d="M11.4538 5.80056L11.4575 5.80981C11.5075 5.93154 11.5075 6.06808 11.4575 6.18981L11.4538 6.19906C11.4306 6.25903 11.396 6.31393 11.3519 6.36078L6.35644 11.3563L6.355 11.3577C6.30852 11.4046 6.25321 11.4418 6.19229 11.4672C6.13136 11.4926 6.06601 11.5056 6 11.5056C5.93399 11.5056 5.86864 11.4926 5.80771 11.4672C5.74679 11.4418 5.69148 11.4046 5.645 11.3577L5.6421 11.3548C5.59524 11.3084 5.55804 11.2531 5.53266 11.1921C5.50727 11.1312 5.4942 11.0658 5.4942 10.9998C5.4942 10.9338 5.50727 10.8685 5.53266 10.8076C5.55804 10.7466 5.59524 10.6913 5.6421 10.6448L5.64302 10.6439L8.94302 7.3539L9.7997 6.49981H8.59H1C0.867392 6.49981 0.740215 6.44713 0.646447 6.35336C0.552678 6.2596 0.5 6.13242 0.5 5.99981C0.5 5.8672 0.552678 5.74003 0.646447 5.64626C0.740215 5.55249 0.867392 5.49981 1 5.49981H8.59H9.7997L8.94302 4.64572L5.64355 1.35626C5.64361 1.35631 5.6435 1.3562 5.64355 1.35626C5.54912 1.26174 5.49591 1.13343 5.49591 0.999812C5.49591 0.933612 5.50895 0.868063 5.53428 0.806905C5.55961 0.745746 5.59674 0.690175 5.64355 0.643366C5.73809 0.54883 5.86631 0.495721 6 0.495721C6.0662 0.495721 6.13175 0.508759 6.19291 0.534093C6.25407 0.559426 6.30964 0.596557 6.35645 0.643365L11.3519 5.63884C11.396 5.68569 11.4306 5.7406 11.4538 5.80056Z" fill="#333333"/>
<path d="M5.64355 1.35626L8.94302 4.64572L9.7997 5.49981H8.59H1C0.867392 5.49981 0.740215 5.55249 0.646447 5.64626C0.552678 5.74003 0.5 5.8672 0.5 5.99981C0.5 6.13242 0.552678 6.2596 0.646447 6.35336C0.740215 6.44713 0.867392 6.49981 1 6.49981H8.59H9.7997L8.94302 7.3539L5.64302 10.6439L5.6421 10.6448C5.59524 10.6913 5.55804 10.7466 5.53266 10.8076C5.50727 10.8685 5.4942 10.9338 5.4942 10.9998C5.4942 11.0658 5.50727 11.1312 5.53266 11.1921C5.55804 11.2531 5.59524 11.3084 5.6421 11.3548L5.645 11.3577C5.69148 11.4046 5.74679 11.4418 5.80771 11.4672C5.86864 11.4926 5.93399 11.5056 6 11.5056C6.06601 11.5056 6.13136 11.4926 6.19229 11.4672C6.25321 11.4418 6.30852 11.4046 6.355 11.3577L6.35644 11.3563L11.3519 6.36078C11.396 6.31393 11.4306 6.25903 11.4538 6.19906L11.4575 6.18981C11.5075 6.06808 11.5075 5.93154 11.4575 5.80981L11.4538 5.80056C11.4306 5.7406 11.396 5.68569 11.3519 5.63884L6.35645 0.643365M5.64355 1.35626C5.6435 1.3562 5.64361 1.35631 5.64355 1.35626ZM5.64355 1.35626C5.54912 1.26174 5.49591 1.13343 5.49591 0.999812C5.49591 0.933612 5.50895 0.868063 5.53428 0.806905C5.55961 0.745746 5.59674 0.690175 5.64355 0.643366C5.73809 0.54883 5.86631 0.495721 6 0.495721C6.0662 0.495721 6.13175 0.508759 6.19291 0.534093C6.25407 0.559426 6.30964 0.596557 6.35645 0.643365M6.35645 0.643365L6.70831 0.291504" stroke="#333333"/>
</g>
<defs>
<clipPath id="clip0_859_2">
<rect width="12" height="12" fill="white"/>
</clipPath>
</defs>
</svg>
