<svg width="12" height="12" viewBox="0 0 12 12" fill="none" xmlns="http://www.w3.org/2000/svg">
<g clip-path="url(#clip0_38_2)">
<path d="M3.05688 4.64583L2.20019 5.49992H3.4099H10.9999C11.1325 5.49992 11.2597 5.5526 11.3534 5.64637C11.4472 5.74014 11.4999 5.86731 11.4999 5.99992C11.4999 6.13253 11.4472 6.25971 11.3534 6.35347C11.2597 6.44724 11.1325 6.49992 10.9999 6.49992H3.4099H2.20019L3.05688 7.35401L6.35688 10.644L6.3578 10.6449C6.40466 10.6914 6.44186 10.7467 6.46724 10.8077C6.49263 10.8686 6.50569 10.9339 6.50569 10.9999C6.50569 11.0659 6.49263 11.1313 6.46724 11.1922C6.44186 11.2532 6.40466 11.3085 6.3578 11.3549L6.3549 11.3578C6.30841 11.4047 6.25311 11.4419 6.19218 11.4673C6.13126 11.4927 6.06591 11.5057 5.9999 11.5057C5.93389 11.5057 5.86854 11.4927 5.80761 11.4673C5.74668 11.4419 5.69138 11.4047 5.6449 11.3578L5.64345 11.3564L0.647971 6.36089C0.603933 6.31405 0.569333 6.25914 0.546081 6.19917L0.54239 6.18992C0.492381 6.06819 0.492381 5.93165 0.54239 5.80992L0.546081 5.80067C0.569333 5.74071 0.603933 5.6858 0.64797 5.63895L5.64345 0.64347C5.73799 0.548935 5.8662 0.495825 5.9999 0.495825C6.13359 0.495825 6.26181 0.548934 6.35634 0.643469C6.45088 0.738005 6.50399 0.866223 6.50399 0.999916C6.50399 1.13354 6.45094 1.26169 6.3565 1.35621C6.35656 1.35615 6.35645 1.35626 6.3565 1.35621L3.05688 4.64583Z" fill="#333333"/>
<path d="M5.64345 0.64347L0.64797 5.63895C0.603933 5.6858 0.569333 5.74071 0.546081 5.80067L0.54239 5.80992C0.492381 5.93165 0.492381 6.06819 0.54239 6.18992L0.546081 6.19917C0.569333 6.25914 0.603933 6.31405 0.647971 6.36089L5.64345 11.3564L5.6449 11.3578C5.69138 11.4047 5.74668 11.4419 5.80761 11.4673C5.86854 11.4927 5.93389 11.5057 5.9999 11.5057C6.06591 11.5057 6.13126 11.4927 6.19218 11.4673C6.25311 11.4419 6.30841 11.4047 6.3549 11.3578L6.3578 11.3549C6.40466 11.3085 6.44186 11.2532 6.46724 11.1922C6.49263 11.1313 6.50569 11.0659 6.50569 10.9999C6.50569 10.9339 6.49263 10.8686 6.46724 10.8077C6.44186 10.7467 6.40466 10.6914 6.3578 10.6449L6.35688 10.644L3.05688 7.35401L2.20019 6.49992H3.4099H10.9999C11.1325 6.49992 11.2597 6.44724 11.3534 6.35347C11.4472 6.25971 11.4999 6.13253 11.4999 5.99992C11.4999 5.86731 11.4472 5.74014 11.3534 5.64637C11.2597 5.5526 11.1325 5.49992 10.9999 5.49992H3.4099H2.20019L3.05688 4.64583L6.3565 1.35621M5.64345 0.64347L5.29173 0.291748M5.64345 0.64347C5.73799 0.548935 5.8662 0.495825 5.9999 0.495825C6.13359 0.495825 6.26181 0.548934 6.35634 0.643469C6.45088 0.738005 6.50399 0.866223 6.50399 0.999916C6.50399 1.13354 6.45094 1.26169 6.3565 1.35621M6.3565 1.35621C6.35645 1.35626 6.35656 1.35615 6.3565 1.35621Z" stroke="#333333"/>
</g>
<defs>
<clipPath id="clip0_38_2">
<rect width="12" height="12" fill="white"/>
</clipPath>
</defs>
</svg>
